<?xml version="1.0"?>
<svg xmlns="http://www.w3.org/2000/svg" viewBox="0 0 16 16">
    <path style="line-height:normal;text-indent:0;text-align:start;text-decoration-line:none;text-decoration-style:solid;text-decoration-color:#000;text-transform:none;block-progression:tb;isolation:auto;mix-blend-mode:normal" d="M 10.5 1.0019531 C 9.6032121 1.0019531 8.7068681 1.3439131 8.0253906 2.0253906 L 8.0332031 2.015625 L 2.5292969 7.2636719 L 3.2207031 7.9863281 L 8.7265625 2.7363281 L 8.7324219 2.7324219 C 9.7134668 1.7513769 11.286533 1.7513769 12.267578 2.7324219 C 13.248161 3.713005 13.247238 5.2844843 12.267578 6.265625 C 12.267578 6.265625 12.267578 6.2675781 12.267578 6.2675781 L 5.5664062 12.554688 L 5.5605469 12.560547 C 4.9705834 13.15051 4.0294166 13.15051 3.4394531 12.560547 C 2.8499527 11.971046 2.850878 11.031457 3.4394531 10.441406 C 3.4394531 10.441406 3.4394531 10.439453 3.4394531 10.439453 L 10.140625 4.1523438 L 10.146484 4.1464844 C 10.345449 3.94701 10.653308 3.9462766 10.853516 4.1464844 C 11.05299 4.3454486 11.053723 4.6533079 10.853516 4.8535156 L 5.0351562 10.257812 L 5.7148438 10.992188 L 11.554688 5.5664062 L 11.560547 5.5605469 C 12.142339 4.9787546 12.143072 4.0204889 11.560547 3.4394531 C 10.978755 2.8576609 10.020489 2.8569275 9.4394531 3.4394531 L 2.7382812 9.7265625 L 2.7324219 9.7324219 C 1.7603853 10.704458 1.7603853 12.295542 2.7324219 13.267578 C 3.7044584 14.239615 5.2955416 14.239615 6.2675781 13.267578 L 12.96875 6.9804688 L 12.974609 6.9746094 C 14.337564 5.6116543 14.337564 3.3883457 12.974609 2.0253906 C 12.293013 1.3439317 11.396788 1.0019531 10.5 1.0019531 z" font-weight="400" font-family="sans-serif" white-space="normal" overflow="visible"/>
</svg>
